<?xml version="1.0" encoding="iso-8859-1"?>
<!-- Generator: Adobe Illustrator 17.1.0, SVG Export Plug-In . SVG Version: 6.00 Build 0)  -->
<!DOCTYPE svg PUBLIC "-//W3C//DTD SVG 1.1//EN" "http://www.w3.org/Graphics/SVG/1.1/DTD/svg11.dtd">
<svg version="1.1" id="Capa_1" xmlns="http://www.w3.org/2000/svg" xmlns:xlink="http://www.w3.org/1999/xlink" x="0px" y="0px"
	 viewBox="0 0 284.707 284.707" style="enable-background:new 0 0 284.707 284.707;" xml:space="preserve">
<g>
	<path style="fill:#000002;" d="M40.013,71.088H17.5c-9.649,0-17.5,7.851-17.5,17.5v95.171c0,9.649,7.851,17.5,17.5,17.5h22.513
		c9.649,0,17.5-7.851,17.5-17.5V88.588C57.513,78.938,49.662,71.088,40.013,71.088z M42.513,183.759c0,1.355-1.145,2.5-2.5,2.5H17.5
		c-1.355,0-2.5-1.145-2.5-2.5V88.588c0-1.355,1.145-2.5,2.5-2.5h22.513c1.355,0,2.5,1.145,2.5,2.5V183.759z"/>
	<path style="fill:#000002;" d="M213.249,139.6c-8.322,0-16.309,1.444-23.743,4.071V15.628c0-5.457-2.327-9.851-6.385-12.054
		c-4.058-2.204-9.01-1.762-13.586,1.211L80.002,62.939C73.273,67.309,68.2,76.654,68.2,84.676v102.995
		c0,8.021,5.073,17.367,11.801,21.737l89.777,58.312c12.053,9.27,27.125,14.799,43.47,14.799c39.402,0,71.458-32.056,71.458-71.459
		C284.707,171.656,252.651,139.6,213.249,139.6z M269.707,211.059c0,12.696-4.215,24.426-11.315,33.867l-79.01-79.01
		c9.441-7.101,21.171-11.316,33.868-11.316C244.38,154.6,269.707,179.927,269.707,211.059z M83.2,187.671V84.676
		c0-2.936,2.509-7.558,4.972-9.158l86.334-56.075v131.619c-19.667,12.744-32.716,34.868-32.716,59.997
		c0,8.082,1.368,15.847,3.852,23.097l-57.47-37.328C85.71,195.229,83.2,190.607,83.2,187.671z M186.696,260.867
		c-0.192-0.154-0.394-0.301-0.605-0.438l-7.669-4.981c-13.157-10.346-21.632-26.391-21.632-44.388
		c0-13.038,4.454-25.048,11.905-34.616l79.171,79.17c-9.568,7.451-21.578,11.905-34.616,11.905
		C203.655,267.518,194.616,265.106,186.696,260.867z"/>
</g>
<g>
</g>
<g>
</g>
<g>
</g>
<g>
</g>
<g>
</g>
<g>
</g>
<g>
</g>
<g>
</g>
<g>
</g>
<g>
</g>
<g>
</g>
<g>
</g>
<g>
</g>
<g>
</g>
<g>
</g>
</svg>
