<?xml version="1.0" encoding="iso-8859-1"?>
<!-- Generator: Adobe Illustrator 17.1.0, SVG Export Plug-In . SVG Version: 6.00 Build 0)  -->
<!DOCTYPE svg PUBLIC "-//W3C//DTD SVG 1.1//EN" "http://www.w3.org/Graphics/SVG/1.1/DTD/svg11.dtd">
<svg version="1.1" id="Capa_1" xmlns="http://www.w3.org/2000/svg" xmlns:xlink="http://www.w3.org/1999/xlink" x="0px" y="0px"
	 viewBox="0 0 284.318 284.318" style="enable-background:new 0 0 284.318 284.318;" xml:space="preserve">
<g>
	<path style="fill:#000002;" d="M260.494,68.611c-2.574-3.244-7.292-3.788-10.537-1.213c-3.245,2.575-3.788,7.292-1.213,10.537
		c12.499,15.75,20.574,40.858,20.574,63.964c0,23.321-8.224,48.618-20.952,64.447c-2.596,3.227-2.083,7.948,1.145,10.544
		c1.385,1.114,3.045,1.656,4.695,1.656c2.194,0,4.368-0.958,5.85-2.801c14.739-18.329,24.263-47.315,24.263-73.846
		C284.318,115.617,274.967,86.849,260.494,68.611z"/>
	<path style="fill:#000002;" d="M211.401,92.064c-3.245,2.575-3.788,7.292-1.214,10.537c6.959,8.771,12.01,25.34,12.01,39.397
		c0,14.181-5.145,30.869-12.233,39.68c-2.596,3.228-2.085,7.948,1.143,10.545c1.386,1.115,3.046,1.657,4.696,1.657
		c2.193,0,4.367-0.958,5.849-2.799c10.739-13.349,15.546-34.27,15.546-49.082c0-14.677-4.718-35.434-15.259-48.72
		C219.362,90.033,214.646,89.49,211.401,92.064z"/>
	<path style="fill:#000002;" d="M177.606,8.181c-2.711,0-5.427,0.871-8.073,2.59L80,68.925c-6.728,4.37-11.801,13.715-11.801,21.737
		v102.995c0,8.023,5.073,17.367,11.801,21.737l89.533,58.153c2.645,1.719,5.361,2.59,8.073,2.59c5.913,0,11.899-4.614,11.899-13.433
		V21.614C189.505,12.795,183.519,8.181,177.606,8.181z M174.505,258.889l-86.334-56.075c-2.462-1.6-4.972-6.221-4.972-9.158V90.661
		c0-2.936,2.509-7.558,4.972-9.158l86.334-56.075V258.889z"/>
	<path style="fill:#000002;" d="M40.012,77.074H17.5c-9.649,0-17.5,7.851-17.5,17.5v95.171c0,9.649,7.851,17.5,17.5,17.5h22.512
		c9.649,0,17.5-7.851,17.5-17.5V94.574C57.512,84.924,49.661,77.074,40.012,77.074z M42.512,189.744c0,1.355-1.145,2.5-2.5,2.5H17.5
		c-1.355,0-2.5-1.145-2.5-2.5V94.574c0-1.355,1.145-2.5,2.5-2.5h22.512c1.355,0,2.5,1.145,2.5,2.5V189.744z"/>
</g>
<g>
</g>
<g>
</g>
<g>
</g>
<g>
</g>
<g>
</g>
<g>
</g>
<g>
</g>
<g>
</g>
<g>
</g>
<g>
</g>
<g>
</g>
<g>
</g>
<g>
</g>
<g>
</g>
<g>
</g>
</svg>
