<?xml version="1.0" encoding="iso-8859-1"?>
<!-- Generator: Adobe Illustrator 17.1.0, SVG Export Plug-In . SVG Version: 6.00 Build 0)  -->
<!DOCTYPE svg PUBLIC "-//W3C//DTD SVG 1.1//EN" "http://www.w3.org/Graphics/SVG/1.1/DTD/svg11.dtd">
<svg version="1.1" id="Capa_1" xmlns="http://www.w3.org/2000/svg" xmlns:xlink="http://www.w3.org/1999/xlink" x="0px" y="0px"
	 viewBox="0 0 265.405 265.405" style="enable-background:new 0 0 265.405 265.405;" xml:space="preserve">
<g>
	<path style="fill:#000002;" d="M132.703,0C59.53,0,0,59.53,0,132.702s59.53,132.702,132.703,132.702
		c73.172,0,132.702-59.53,132.702-132.702S205.875,0,132.703,0z M132.703,250.405C67.801,250.405,15,197.604,15,132.702
		S67.801,15,132.703,15c64.901,0,117.702,52.801,117.702,117.702S197.604,250.405,132.703,250.405z"/>
	<path style="fill:#000002;" d="M174.816,73.089H90.589c-9.649,0-17.5,7.851-17.5,17.5v84.227c0,9.649,7.851,17.5,17.5,17.5h84.227
		c9.649,0,17.5-7.851,17.5-17.5V90.589C192.316,80.94,184.465,73.089,174.816,73.089z M177.316,174.816c0,1.355-1.145,2.5-2.5,2.5
		H90.589c-1.355,0-2.5-1.145-2.5-2.5V90.589c0-1.355,1.145-2.5,2.5-2.5h84.227c1.355,0,2.5,1.145,2.5,2.5V174.816z"/>
</g>
<g>
</g>
<g>
</g>
<g>
</g>
<g>
</g>
<g>
</g>
<g>
</g>
<g>
</g>
<g>
</g>
<g>
</g>
<g>
</g>
<g>
</g>
<g>
</g>
<g>
</g>
<g>
</g>
<g>
</g>
</svg>
