<?xml version="1.0" encoding="iso-8859-1"?>
<!-- Generator: Adobe Illustrator 17.1.0, SVG Export Plug-In . SVG Version: 6.00 Build 0)  -->
<!DOCTYPE svg PUBLIC "-//W3C//DTD SVG 1.1//EN" "http://www.w3.org/Graphics/SVG/1.1/DTD/svg11.dtd">
<svg version="1.1" id="Capa_1" xmlns="http://www.w3.org/2000/svg" xmlns:xlink="http://www.w3.org/1999/xlink" x="0px" y="0px"
	 viewBox="0 0 265.404 265.404" style="enable-background:new 0 0 265.404 265.404;" xml:space="preserve">
<g>
	<path style="fill:#000002;" d="M194.172,123.684l-78.081-51.122c-1.921-1.257-4.032-1.922-6.106-1.922
		c-5.521,0-9.686,4.496-9.686,10.458v103.207c0,5.962,4.164,10.458,9.685,10.458c2.075,0,4.187-0.665,6.106-1.923l78.082-51.129
		c3.251-2.129,5.117-5.415,5.116-9.014C199.289,129.098,197.424,125.814,194.172,123.684z M115.3,175.429V89.973l65.256,42.725
		L115.3,175.429z"/>
	<path style="fill:#000002;" d="M132.702,0.001C59.53,0.001,0,59.53,0,132.702c0,73.172,59.53,132.702,132.702,132.702
		s132.702-59.53,132.702-132.702C265.404,59.53,205.875,0.001,132.702,0.001z M132.702,250.404
		C67.801,250.404,15,197.603,15,132.702C15,67.801,67.801,15.001,132.702,15.001s117.702,52.8,117.702,117.701
		C250.404,197.603,197.604,250.404,132.702,250.404z"/>
</g>
<g>
</g>
<g>
</g>
<g>
</g>
<g>
</g>
<g>
</g>
<g>
</g>
<g>
</g>
<g>
</g>
<g>
</g>
<g>
</g>
<g>
</g>
<g>
</g>
<g>
</g>
<g>
</g>
<g>
</g>
</svg>
