<?xml version="1.0" encoding="UTF-8" standalone="no"?>
<!-- Generator: Adobe Illustrator 19.1.0, SVG Export Plug-In . SVG Version: 6.00 Build 0)  -->

<svg
   xmlns:dc="http://purl.org/dc/elements/1.1/"
   xmlns:cc="http://creativecommons.org/ns#"
   xmlns:rdf="http://www.w3.org/1999/02/22-rdf-syntax-ns#"
   xmlns:svg="http://www.w3.org/2000/svg"
   xmlns="http://www.w3.org/2000/svg"
   xmlns:sodipodi="http://sodipodi.sourceforge.net/DTD/sodipodi-0.dtd"
   xmlns:inkscape="http://www.inkscape.org/namespaces/inkscape"
   version="1.1"
   id="Capa_1"
   x="0px"
   y="0px"
   viewBox="0 0 487.222 487.222"
   style="enable-background:new 0 0 487.222 487.222;"
   xml:space="preserve"
   sodipodi:docname="star_yellow.svg"
   inkscape:export-filename="/home/albrecht/src/welle.io_next/src/gui/icon/welle_io_icons/20x20/star_yellow.png"
   inkscape:export-xdpi="3.9407089"
   inkscape:export-ydpi="3.9407089"
   inkscape:version="0.92.3 (2405546, 2018-03-11)"><metadata
   id="metadata1462"><rdf:RDF><cc:Work
       rdf:about=""><dc:format>image/svg+xml</dc:format><dc:type
         rdf:resource="http://purl.org/dc/dcmitype/StillImage" /><dc:title></dc:title></cc:Work></rdf:RDF></metadata><defs
   id="defs1460" /><sodipodi:namedview
   pagecolor="#ffffff"
   bordercolor="#666666"
   borderopacity="1"
   objecttolerance="10"
   gridtolerance="10"
   guidetolerance="10"
   inkscape:pageopacity="0"
   inkscape:pageshadow="2"
   inkscape:window-width="1318"
   inkscape:window-height="771"
   id="namedview1458"
   showgrid="false"
   inkscape:zoom="0.4843788"
   inkscape:cx="243.61099"
   inkscape:cy="243.61099"
   inkscape:window-x="319"
   inkscape:window-y="117"
   inkscape:window-maximized="0"
   inkscape:current-layer="Capa_1" />
<g
   id="g1425">
	<path
   d="M486.554,186.811c-1.6-4.9-5.8-8.4-10.9-9.2l-152-21.6l-68.4-137.5c-2.3-4.6-7-7.5-12.1-7.5l0,0c-5.1,0-9.8,2.9-12.1,7.6   l-67.5,137.9l-152,22.6c-5.1,0.8-9.3,4.3-10.9,9.2s-0.2,10.3,3.5,13.8l110.3,106.9l-25.5,151.4c-0.9,5.1,1.2,10.2,5.4,13.2   c2.3,1.7,5.1,2.6,7.9,2.6c2.2,0,4.3-0.5,6.3-1.6l135.7-71.9l136.1,71.1c2,1,4.1,1.5,6.2,1.5l0,0c7.4,0,13.5-6.1,13.5-13.5   c0-1.1-0.1-2.1-0.4-3.1l-26.3-150.5l109.6-107.5C486.854,197.111,488.154,191.711,486.554,186.811z M349.554,293.911   c-3.2,3.1-4.6,7.6-3.8,12l22.9,131.3l-118.2-61.7c-3.9-2.1-8.6-2-12.6,0l-117.8,62.4l22.1-131.5c0.7-4.4-0.7-8.8-3.9-11.9   l-95.6-92.8l131.9-19.6c4.4-0.7,8.2-3.4,10.1-7.4l58.6-119.7l59.4,119.4c2,4,5.8,6.7,10.2,7.4l132,18.8L349.554,293.911z"
   id="path1423" />
</g>
<g
   id="g1427">
</g>
<g
   id="g1429">
</g>
<g
   id="g1431">
</g>
<g
   id="g1433">
</g>
<g
   id="g1435">
</g>
<g
   id="g1437">
</g>
<g
   id="g1439">
</g>
<g
   id="g1441">
</g>
<g
   id="g1443">
</g>
<g
   id="g1445">
</g>
<g
   id="g1447">
</g>
<g
   id="g1449">
</g>
<g
   id="g1451">
</g>
<g
   id="g1453">
</g>
<g
   id="g1455">
</g>
<path
   style="fill:#ffff00;stroke:#000000;stroke-width:2.06449986;stroke-opacity:1"
   d="m 122.18398,434.25449 c -0.019,-0.73087 4.82695,-30.7436 10.76863,-66.69497 9.47664,-57.34035 10.45785,-65.95877 7.99154,-70.193 -1.54633,-2.65478 -23.48911,-24.80092 -48.761732,-49.21363 -35.673363,-34.45957 -45.186954,-44.71243 -42.537493,-45.84293 1.876998,-0.8009 31.546304,-5.58991 65.931795,-10.64223 36.42658,-5.35222 63.92263,-10.34504 65.88208,-11.96306 1.84966,-1.52737 16.5661,-29.71875 32.70319,-62.64752 l 29.34016,-59.870502 30.17954,61.191642 c 17.7315,35.9521 31.65756,61.7588 33.7629,62.56668 3.08163,1.18254 127.3385,19.59926 133.55735,19.79519 1.2354,0.0389 -19.83778,21.63876 -46.8293,47.99963 -42.78046,41.78089 -49.06606,48.72331 -49.0019,54.12235 0.0405,3.40643 5.05534,34.52876 11.14411,69.16075 6.08877,34.63198 10.95265,63.04766 10.80863,63.14595 -0.1441,0.0983 -26.27454,-13.53889 -58.06784,-30.30484 -36.84172,-19.4282 -60.13868,-30.5367 -64.23804,-30.63007 -4.49412,-0.1024 -23.93217,9.11757 -64.51563,30.60144 -31.94596,16.91137 -58.09906,30.14998 -58.11799,29.41912 z"
   id="path5710"
   inkscape:connector-curvature="0"
   inkscape:export-filename="/home/albrecht/src/welle.io_next/src/gui/icon/welle_io_icons/20x20@4/star_yellow.png"
   inkscape:export-xdpi="19.383549"
   inkscape:export-ydpi="19.383549" /></svg>